# xmcd CD database file
#
# Track frame offsets:
#	150
#	5188
#	23835
#	40424
#	61986
#	76314
#	95101
#	114733
#	133549
#	155507
#
# Disc length: 2275 seconds
#
# Revision: 0
# Processed by: cddbd v1.5.1PL2 Copyright (c) Steve Scherf et al.
# Submitted via: CDex 1.51
#
DISCID=8308e10a
DTITLE=馬渡松子 - POPS+
DYEAR=2005
DGENRE=JPop
TTITLE0=CLEAN on the SMILE 〜分散〜
TTITLE1=限りある日常
TTITLE2=P-U [time limit version]
TTITLE3=風のかたち
TTITLE4=SCIENCE OF LOVE
TTITLE5=Let's be human
TTITLE6=Forest
TTITLE7=子宮で愛してる
TTITLE8=WHO
TTITLE9=BEES WAX
EXTD=YEAR: 2005
EXTT0=
EXTT1=
EXTT2=
EXTT3=
EXTT4=
EXTT5=
EXTT6=
EXTT7=
EXTT8=
EXTT9=
PLAYORDER=
